<svg width="52" height="56" viewBox="0 0 52 56" fill="none" xmlns="http://www.w3.org/2000/svg">
<mask id="path-1-inside-1_76_12" fill="white">
<path d="M0 29.7928C0 17.0758 10.3092 6.76652 23.0263 6.76652H26.8642C39.5813 6.76652 49.8905 17.0758 49.8905 29.7928C49.8905 42.5099 39.5812 52.8191 26.8642 52.8191H23.0263C10.3092 52.8191 0 42.5099 0 29.7928Z"/>
</mask>
<path d="M0 29.7928C0 17.0758 10.3092 6.76652 23.0263 6.76652H26.8642C39.5813 6.76652 49.8905 17.0758 49.8905 29.7928C49.8905 42.5099 39.5812 52.8191 26.8642 52.8191H23.0263C10.3092 52.8191 0 42.5099 0 29.7928Z" fill="#FAEFB9"/>
<path d="M-9 29.7928C-9 14.8666 3.10009 2.76652 18.0263 2.76652H26.8642C40.6858 2.76652 51.8905 13.9712 51.8905 27.7928L47.8905 29.7928C47.8905 19.2849 38.4767 10.7665 26.8642 10.7665H23.0263C15.2798 10.7665 9 19.2849 9 29.7928H-9ZM51.8905 29.7928C51.8905 43.0622 41.1335 53.8191 27.8642 53.8191H15.0263C1.75695 53.8191 -9 43.0622 -9 29.7928H9C9 41.9576 15.2798 51.8191 23.0263 51.8191H26.8642C38.4767 51.8191 47.8905 41.9576 47.8905 29.7928H51.8905ZM15.0263 53.8191C1.75695 53.8191 -9 43.0622 -9 29.7928C-9 14.8666 3.10009 2.76652 18.0263 2.76652L23.0263 10.7665C15.2798 10.7665 9 19.2849 9 29.7928C9 41.9576 15.2798 51.8191 23.0263 51.8191L15.0263 53.8191ZM26.8642 2.76652C40.6858 2.76652 51.8905 13.9712 51.8905 27.7928V29.7928C51.8905 43.0622 41.1335 53.8191 27.8642 53.8191L26.8642 51.8191C38.4767 51.8191 47.8905 41.9576 47.8905 29.7928C47.8905 19.2849 38.4767 10.7665 26.8642 10.7665V2.76652Z" fill="url(#paint0_angular_76_12)" mask="url(#path-1-inside-1_76_12)"/>
<line x1="9" y1="30.05" x2="47" y2="30.05" stroke="url(#paint1_linear_76_12)" stroke-width="4"/>
<path d="M0.109497 54C10.1628 54 26.0332 53.7596 37.171 42.6686M37.171 42.6686C44.4572 35.4129 49.7181 23.5136 50 4C40.2595 12.5526 24.0569 32.26 37.171 42.6686ZM37.171 42.6686L50 54" stroke="#009F6B" stroke-width="3"/>
<defs>
<radialGradient id="paint0_angular_76_12" cx="0" cy="0" r="1" gradientUnits="userSpaceOnUse" gradientTransform="translate(24.9452 29.7928) rotate(90) scale(23.0263 24.9452)">
<stop offset="0.419792" stop-color="#FFD19C"/>
<stop offset="1" stop-color="#FCEB9A" stop-opacity="0"/>
</radialGradient>
<linearGradient id="paint1_linear_76_12" x1="47" y1="32.05" x2="9" y2="32.05" gradientUnits="userSpaceOnUse">
<stop stop-color="#B07127" stop-opacity="0"/>
<stop offset="0.976241" stop-color="#FEE99E"/>
</linearGradient>
</defs>
</svg>
