<svg width="151" height="52" viewBox="0 0 151 52" fill="none" xmlns="http://www.w3.org/2000/svg">
<path d="M0 51H106.162C117.449 51 127.781 44.665 132.899 34.6056L150 1" stroke="#DCDCDC"/>
<path d="M42.1201 23.9489L41.4838 24.0682C41.3777 23.4053 41.1788 22.8584 40.8872 22.4276C40.5955 21.9901 40.2077 21.6652 39.7238 21.4531C39.2466 21.2344 38.6665 21.125 37.9838 21.125C36.7376 21.125 35.6803 21.4465 34.8119 22.0895C33.9435 22.7325 33.4232 23.5644 33.2508 24.5852C33.1249 25.3741 33.2674 26.0303 33.6784 26.554C34.096 27.0777 34.802 27.4687 35.7963 27.7273L38.1031 28.3239C39.177 28.6023 39.9459 29.0862 40.4099 29.7756C40.8806 30.4583 41.0396 31.2737 40.8872 32.2216C40.7546 33.0502 40.4232 33.7727 39.8929 34.3892C39.3626 34.9991 38.6897 35.473 37.8744 35.8111C37.0657 36.1491 36.1609 36.3182 35.1599 36.3182C33.7944 36.3182 32.7305 35.9834 31.9681 35.3139C31.2125 34.6444 30.8048 33.6932 30.7451 32.4602L31.3815 32.3807C31.4213 33.4545 31.7627 34.2732 32.4056 34.8366C33.0486 35.4001 33.9667 35.6818 35.1599 35.6818C36.5122 35.6818 37.6623 35.3471 38.6102 34.6776C39.5581 34.0014 40.1182 33.1297 40.2906 32.0625C40.4165 31.2803 40.2773 30.6274 39.873 30.1037C39.4686 29.58 38.7991 29.1989 37.8645 28.9602L35.5974 28.3636C34.4639 28.0653 33.6419 27.5748 33.1315 26.892C32.6277 26.2093 32.4554 25.3873 32.6145 24.4261C32.747 23.6373 33.0586 22.9479 33.5491 22.358C34.0396 21.768 34.6627 21.3106 35.4184 20.9858C36.1807 20.6544 37.0226 20.4886 37.944 20.4886C39.1438 20.4886 40.095 20.7836 40.7977 21.3736C41.5003 21.9569 41.9412 22.8153 42.1201 23.9489ZM46.2719 36L48.8174 20.7273H49.4537L46.9083 36H46.2719ZM49.6327 17.9432C49.4338 17.9432 49.2748 17.8736 49.1554 17.7344C49.0427 17.5952 49.003 17.4261 49.0361 17.2273C49.0626 17.0881 49.1422 16.9621 49.2748 16.8494C49.4073 16.7301 49.5532 16.6705 49.7123 16.6705C49.9111 16.6705 50.0669 16.7401 50.1796 16.8793C50.2989 17.0185 50.342 17.1875 50.3088 17.3864C50.2823 17.5322 50.2028 17.6615 50.0702 17.7741C49.9376 17.8868 49.7918 17.9432 49.6327 17.9432ZM58.0153 42.0455C57.1668 42.0455 56.3979 41.9295 55.7085 41.6974C55.0191 41.4721 54.4457 41.1307 53.9883 40.6733C53.5309 40.2225 53.2293 39.6591 53.0835 38.983L53.6801 38.7841C53.8127 39.3807 54.0745 39.8712 54.4656 40.2557C54.8567 40.6468 55.3538 40.9351 55.9571 41.1207C56.5603 41.313 57.2464 41.4091 58.0153 41.4091C59.6062 41.4091 60.9287 40.9882 61.9826 40.1463C63.0366 39.3045 63.7028 38.0284 63.9812 36.3182L64.6573 32.1818H64.5778C64.1801 33.0303 63.6697 33.7396 63.0466 34.3097C62.4301 34.8731 61.7506 35.2973 61.0082 35.5824C60.2724 35.8608 59.5267 36 58.771 36C57.5778 36 56.5934 35.6785 55.8179 35.0355C55.0423 34.3925 54.5087 33.5009 54.217 32.3608C53.9253 31.2206 53.9055 29.9015 54.1573 28.4034C54.4092 26.892 54.8733 25.5398 55.5494 24.3466C56.2255 23.1534 57.0608 22.2121 58.0551 21.5227C59.0494 20.8333 60.1498 20.4886 61.3562 20.4886C62.1782 20.4886 62.8974 20.6577 63.5139 20.9957C64.137 21.3272 64.6441 21.8045 65.0352 22.4276C65.4329 23.044 65.7047 23.7765 65.8505 24.625H65.9301L66.5664 20.7273H67.2028L64.6176 36.3182C64.4055 37.5777 64.0044 38.6316 63.4145 39.4801C62.8245 40.3286 62.0721 40.9683 61.1573 41.3991C60.2426 41.83 59.1952 42.0455 58.0153 42.0455ZM58.771 35.3636C59.8316 35.3636 60.8093 35.0819 61.7042 34.5185C62.6057 33.955 63.3681 33.1529 63.9912 32.1122C64.6209 31.0715 65.0551 29.8352 65.2937 28.4034C65.5191 27.0246 65.5158 25.7884 65.2838 24.6946C65.0584 23.5942 64.6109 22.7259 63.9414 22.0895C63.2786 21.4465 62.4036 21.125 61.3164 21.125C60.2426 21.125 59.2516 21.4465 58.3434 22.0895C57.4419 22.7259 56.6796 23.5942 56.0565 24.6946C55.44 25.7884 55.0191 27.0246 54.7937 28.4034C54.5683 29.7822 54.5716 30.9953 54.8037 32.0426C55.0423 33.0833 55.4931 33.8987 56.1559 34.4886C56.8254 35.072 57.6971 35.3636 58.771 35.3636ZM73.8975 25.7386L72.1873 36H71.551L74.0964 20.7273H74.7328L74.335 23.1534H74.4146C74.8919 22.358 75.5813 21.7216 76.4828 21.2443C77.3909 20.767 78.372 20.5284 79.426 20.5284C80.4468 20.5284 81.3118 20.7505 82.0211 21.1946C82.7304 21.6387 83.2408 22.2519 83.5524 23.0341C83.8639 23.8163 83.9335 24.7178 83.7612 25.7386L82.051 36H81.4146L83.1248 25.7386C83.3436 24.3864 83.1116 23.286 82.4288 22.4375C81.7527 21.589 80.7385 21.1648 79.3862 21.1648C78.4847 21.1648 77.6428 21.3603 76.8606 21.7514C76.085 22.1425 75.4321 22.6828 74.9018 23.3722C74.3781 24.0616 74.0434 24.8504 73.8975 25.7386ZM98.2196 36L100.765 20.7273H101.401L98.8559 36H98.2196ZM101.58 17.9432C101.382 17.9432 101.222 17.8736 101.103 17.7344C100.99 17.5952 100.951 17.4261 100.984 17.2273C101.01 17.0881 101.09 16.9621 101.222 16.8494C101.355 16.7301 101.501 16.6705 101.66 16.6705C101.859 16.6705 102.015 16.7401 102.127 16.8793C102.247 17.0185 102.29 17.1875 102.257 17.3864C102.23 17.5322 102.15 17.6615 102.018 17.7741C101.885 17.8868 101.739 17.9432 101.58 17.9432ZM108.094 25.7386L106.383 36H105.747L108.293 20.7273H108.929L108.531 23.1534H108.611C109.088 22.358 109.777 21.7216 110.679 21.2443C111.587 20.767 112.568 20.5284 113.622 20.5284C114.643 20.5284 115.508 20.7505 116.217 21.1946C116.927 21.6387 117.437 22.2519 117.748 23.0341C118.06 23.8163 118.13 24.7178 117.957 25.7386L116.247 36H115.611L117.321 25.7386C117.54 24.3864 117.308 23.286 116.625 22.4375C115.949 21.589 114.935 21.1648 113.582 21.1648C112.681 21.1648 111.839 21.3603 111.057 21.7514C110.281 22.1425 109.628 22.6828 109.098 23.3722C108.574 24.0616 108.239 24.8504 108.094 25.7386Z" fill="#2A3439"/>
</svg>
